<?xml version="1.0" encoding="UTF-8"?>
<svg version="1.1" xmlns="http://www.w3.org/2000/svg" width="1024" height="1024">
<path d="M0 0 C337.92 0 675.84 0 1024 0 C1024 337.92 1024 675.84 1024 1024 C686.08 1024 348.16 1024 0 1024 C0 686.08 0 348.16 0 0 Z " fill="#246AFE" transform="translate(0,0)"/>
<path d="M0 0 C337.92 0 675.84 0 1024 0 C1024 337.92 1024 675.84 1024 1024 C686.08 1024 348.16 1024 0 1024 C0 686.08 0 348.16 0 0 Z M64 74 C63.35289063 74.59683594 62.70578125 75.19367188 62.0390625 75.80859375 C39.36519514 97.15183509 25.82951209 127.93809016 18.875 157.75 C18.63656372 158.74906372 18.63656372 158.74906372 18.39331055 159.76831055 C14.64693846 176.66545478 14.71399337 193.6168974 14.74603271 210.82749939 C14.74372547 213.53521666 14.74062857 216.24292274 14.73657823 218.95063692 C14.72939334 224.81460797 14.72955013 230.67854211 14.73467255 236.5425148 C14.74226921 245.26282179 14.73835363 253.98309792 14.73225593 262.70340474 C14.72174703 278.28239356 14.72262825 293.86136594 14.72841376 309.44035631 C14.733452 323.07471137 14.73475495 336.70906041 14.73236847 350.34341621 C14.7322157 351.24907888 14.73206293 352.15474155 14.73190553 353.08784854 C14.73128281 356.7645713 14.73064601 360.44129406 14.729986 364.11801681 C14.72387275 398.5843484 14.72940729 433.05066954 14.7401798 467.51699951 C14.74966967 498.11216868 14.74882187 528.70732121 14.73925781 559.30249023 C14.7285392 593.70572415 14.72430717 628.10894884 14.73048234 662.5121842 C14.73112374 666.18237881 14.73174942 669.85257341 14.73236847 673.52276802 C14.73252662 674.42641062 14.73268478 675.33005321 14.73284773 676.26107891 C14.73511889 689.88336949 14.73246916 703.50565339 14.72740936 717.12794304 C14.72168216 732.62399666 14.72313898 748.12003133 14.73397085 763.6160826 C14.7398276 772.27958203 14.74024973 780.94304035 14.7326785 789.60653867 C14.72817263 795.40375939 14.73102274 801.20094736 14.73968804 806.99816326 C14.74441547 810.29423332 14.74501777 813.59020677 14.73887607 816.88627683 C14.70888626 834.32504336 14.94219667 851.5565427 19.25 868.5625 C19.46615967 869.43543701 19.68231934 870.30837402 19.9050293 871.20776367 C23.59565094 885.66631669 28.95042962 898.87030183 36 912 C36.31694824 912.60440918 36.63389648 913.20881836 36.96044922 913.83154297 C56.89838674 951.71259067 93.08869026 977.53546742 133 991 C133.75410156 991.25507324 134.50820312 991.51014648 135.28515625 991.77294922 C146.00446284 995.32288058 156.8204948 997.48670171 168 999 C168.65357652 999.08929371 169.30715305 999.17858743 169.98053492 999.27058701 C176.12804334 1000.03419848 182.19401062 1000.14203999 188.38353443 1000.13142776 C190.06561591 1000.13450672 190.06561591 1000.13450672 191.78167883 1000.13764787 C195.54243666 1000.14330602 199.30315773 1000.14186206 203.06391907 1000.14044189 C205.78647509 1000.14247732 208.50902874 1000.14600094 211.2315833 1000.1494453 C217.93167052 1000.15700957 224.63174977 1000.15921756 231.33184082 1000.15977435 C239.3596419 1000.16068959 247.38743565 1000.16736207 255.41523356 1000.17412117 C274.82077156 1000.19017006 294.22630876 1000.19608397 313.63185219 1000.20086992 C322.81979556 1000.20320779 332.0077383 1000.20681074 341.19568118 1000.2105653 C372.67106624 1000.22340214 404.14645095 1000.23411938 435.62183857 1000.2375679 C437.59725921 1000.23778953 439.57267985 1000.23801132 441.54810048 1000.23823325 C443.5282063 1000.23845389 445.50831211 1000.23867437 447.48841792 1000.2388947 C451.46062172 1000.23933724 455.43282551 1000.23978436 459.4050293 1000.24023438 C460.38990277 1000.24034377 461.37477625 1000.24045316 462.38949437 1000.24056586 C494.29034325 1000.2441927 526.19116934 1000.26009794 558.0920095 1000.28342474 C591.84890955 1000.3080634 625.60579659 1000.32174269 659.36270589 1000.32293582 C663.07420838 1000.32310726 666.78571087 1000.32332268 670.49721336 1000.32357025 C671.867947 1000.3236539 671.867947 1000.3236539 673.26637222 1000.32373925 C687.9266162 1000.32488643 702.58683669 1000.33588042 717.24707277 1000.35045731 C732.00744069 1000.36487894 746.76777875 1000.36802756 761.52815179 1000.36001733 C770.27840148 1000.35558703 779.02855424 1000.35931638 787.77879104 1000.37525584 C793.64687936 1000.38510019 799.51490075 1000.38373884 805.38298864 1000.37381961 C808.71154455 1000.36849443 812.03976833 1000.36921651 815.36833099 1000.38032833 C864.73063928 1000.53451423 913.83087084 991.52452374 952 958 C952.81597656 957.30519531 953.63195312 956.61039063 954.47265625 955.89453125 C988.11015403 926.62830894 1006.84517465 885.22819592 1010 841 C1010.36565506 831.97364501 1010.27917315 822.93433763 1010.26742554 813.9024353 C1010.27006642 811.16528378 1010.27569116 808.4281401 1010.28115618 805.69099295 C1010.29140477 799.76257815 1010.29430899 793.83419596 1010.29224396 787.90577316 C1010.28918054 779.08936274 1010.29754743 770.27298813 1010.30799321 761.4565847 C1010.32728929 744.79025096 1010.33295977 728.12392957 1010.33410732 711.45758598 C1010.33502799 698.58299531 1010.33915289 685.70840945 1010.34550858 672.83382034 C1010.34730378 669.12189059 1010.34908341 665.40996083 1010.35085833 661.69803107 C1010.35130043 660.77512039 1010.35174252 659.85220971 1010.35219802 658.90133204 C1010.36449846 632.9578545 1010.37239994 607.01437864 1010.37151146 581.07089806 C1010.3714803 580.09368114 1010.37144914 579.11646422 1010.37141704 578.10963467 C1010.37125084 573.15719314 1010.37105276 568.20475161 1010.37084763 563.25231008 C1010.37080774 562.26881546 1010.37076785 561.28532084 1010.37072675 560.27202335 C1010.37064587 558.28315974 1010.37056228 556.29429614 1010.37047596 554.30543253 C1010.36925069 523.36782815 1010.38426261 492.43026762 1010.41162109 461.49267578 C1010.44237755 426.6986197 1010.45955148 391.90459244 1010.45769465 357.11052191 C1010.4575454 353.39670602 1010.45744798 349.68289014 1010.45738602 345.96907425 C1010.45736271 345.05470357 1010.4573394 344.14033288 1010.45731538 343.198254 C1010.45725398 328.51885949 1010.46999546 313.83950323 1010.48725055 299.16012008 C1010.50424792 284.39408496 1010.5061488 269.62810547 1010.4930319 254.86206596 C1010.48567036 246.1040326 1010.48921654 237.34616887 1010.50891658 228.58815368 C1010.5209913 222.72153988 1010.5182432 216.85504782 1010.50397559 210.98843941 C1010.496275 207.6566947 1010.49674341 204.32553926 1010.51089029 200.99377768 C1010.59046964 180.9079041 1008.96393697 161.41244785 1002.75 142.1875 C1002.30503174 140.77597656 1002.30503174 140.77597656 1001.85107422 139.3359375 C988.67949133 98.75730382 960.1067021 63.43816644 921.95751953 43.75927734 C905.24190689 35.40753179 888.48486474 28.88718634 870.125 25.3125 C869.08633789 25.11003662 868.04767578 24.90757324 866.97753906 24.69897461 C848.91956369 21.34906099 831.45757042 20.71197569 813.13453674 20.74603271 C810.4226963 20.74483342 807.71086229 20.74062859 804.99902481 20.73657823 C799.1260414 20.72939323 793.25309484 20.72955019 787.38010979 20.73467255 C778.64640156 20.74226911 769.91272414 20.73835368 761.17901608 20.73225593 C745.57609904 20.72174695 729.97319842 20.72262828 714.37027983 20.72841376 C700.71498539 20.73345198 687.05969696 20.73475496 673.40440178 20.73236847 C672.49735276 20.7322157 671.59030375 20.73206293 670.6557684 20.73190553 C666.97341869 20.73128281 663.29106899 20.73064601 659.60871929 20.729986 C625.08955037 20.72387274 590.57039188 20.72940732 556.05122457 20.7401798 C525.40906274 20.74966967 494.76691754 20.74882187 464.12475586 20.73925781 C429.66878423 20.72853924 395.21282182 20.72430715 360.75684875 20.73048234 C357.08103717 20.73112374 353.40522558 20.73174942 349.72941399 20.73236847 C348.82438824 20.73252662 347.9193625 20.73268478 346.98691173 20.73284773 C333.34368958 20.73511891 319.70047411 20.73246913 306.05725288 20.72740936 C290.5374107 20.72168219 275.01758745 20.7231389 259.49774761 20.73397085 C250.82091749 20.73982766 242.14412842 20.74024964 233.46729941 20.7326785 C227.66119283 20.7281727 221.85511895 20.73102261 216.04901719 20.73968804 C212.74785751 20.74441559 209.44684506 20.74501766 206.14567799 20.73887607 C151.8082134 20.64557659 103.58436422 35.29139605 64 74 Z " fill="#FBFCFE" transform="translate(0,0)"/>
<path d="M0 0 C1.64582629 1.39241706 3.27018942 2.81050271 4.875 4.25 C5.78121094 5.06210937 6.68742188 5.87421875 7.62109375 6.7109375 C25.6771925 23.79035407 35.4816257 46.92529708 36.26269531 71.63769531 C36.55436132 89.86396138 32.87578226 105.69575245 23.84521484 121.546875 C22.97899234 123.0674508 22.15264676 124.61058433 21.33203125 126.15625 C9.076723 147.57941095 -12.71349091 160.32937799 -35.84472656 166.63964844 C-37.93413454 167.19409265 -40.02734324 167.72775617 -42.125 168.25 C-42.94226563 168.45753906 -43.75953125 168.66507813 -44.6015625 168.87890625 C-68.46211739 172.38781138 -93.04547975 165.80915562 -112.30151367 151.54785156 C-121.58493486 144.45418086 -128.53636784 136.91063242 -135.125 127.25 C-135.66253906 126.48042969 -136.20007813 125.71085938 -136.75390625 124.91796875 C-141.71851075 117.30903183 -144.48003124 108.87923605 -147.125 100.25 C-147.46917969 99.12851562 -147.81335938 98.00703125 -148.16796875 96.8515625 C-154.21237303 73.41175999 -149.79296269 47.87864716 -137.90234375 27.0625 C-123.42332229 4.15064186 -102.39596732 -10.87031151 -76.125 -17.75 C-50.23863133 -23.42781824 -20.75311516 -16.03202735 0 0 Z " fill="#FCFDFE" transform="translate(933.125,437.75)"/>
<path d="M0 0 C18.70862855 15.15802325 31.59627073 36.76870102 34.60424805 60.83251953 C34.60424805 62.15251953 34.60424805 63.47251953 34.60424805 64.83251953 C17.44424805 64.83251953 0.28424805 64.83251953 -17.39575195 64.83251953 C-19.37575195 59.88251953 -21.35575195 54.93251953 -23.39575195 49.83251953 C-25.35321757 46.62227593 -27.13032439 43.76215623 -29.39575195 40.83251953 C-29.99516602 40.02041016 -30.59458008 39.20830078 -31.2121582 38.37158203 C-40.1997987 27.92083727 -54.00769362 22.58030783 -67.39575195 20.83251953 C-85.32415898 19.74213688 -102.12585984 23.05429062 -116.2434082 34.74658203 C-132.81819023 50.8099824 -138.32515869 71.87993637 -138.78462219 94.23484802 C-139.14593349 120.72513014 -137.35313821 147.14265363 -118.09106445 167.32470703 C-103.57962197 180.82665786 -86.63449366 183.36028177 -67.68286133 182.92138672 C-53.68358665 182.3774354 -39.96917822 175.76385819 -30.3293457 165.66845703 C-24.4015589 158.42196172 -20.95663003 150.79559281 -18.39575195 141.83251953 C-0.90575195 141.83251953 16.58424805 141.83251953 34.60424805 141.83251953 C32.53370518 160.4674053 25.00176882 176.78826925 12.60424805 190.83251953 C11.89397461 191.67427734 11.18370117 192.51603516 10.4519043 193.38330078 C1.61208527 203.62133371 -8.54005079 210.55278741 -20.39575195 216.83251953 C-21.2774707 217.30689453 -22.15918945 217.78126953 -23.06762695 218.27001953 C-51.83998986 232.56684582 -89.10074884 232.46069296 -119.16137695 222.63916016 C-133.91180281 217.31405012 -147.12714086 208.62395817 -158.39575195 197.83251953 C-159.52110352 196.81931641 -159.52110352 196.81931641 -160.66918945 195.78564453 C-172.50709907 184.73692889 -179.49304036 170.6883373 -185.39575195 155.83251953 C-186.02803711 154.26050781 -186.02803711 154.26050781 -186.6730957 152.65673828 C-189.84431666 144.00469015 -191.14964348 134.92778464 -192.39575195 125.83251953 C-192.54040894 124.84058594 -192.54040894 124.84058594 -192.68798828 123.82861328 C-197.53187056 86.72281223 -191.21795813 46.44963864 -168.14575195 16.21142578 C-129.03994346 -32.85502886 -48.58179275 -38.15339131 0 0 Z " fill="#FDFDFE" transform="translate(283.395751953125,383.16748046875)"/>
<path d="M0 0 C9.52437145 8.88030534 16.10797108 21.53331299 16.93126297 34.63446045 C16.99552113 38.10809998 16.99730173 41.57659468 16.97705078 45.05078125 C16.97734283 46.36868149 16.97763489 47.68658173 16.97793579 49.04441833 C16.97850675 52.63686066 16.96679426 56.22916789 16.95278788 59.82157898 C16.94023752 63.58384506 16.93910664 67.34611465 16.93673706 71.10839844 C16.9305349 78.22322953 16.91414128 85.33799874 16.89403808 92.45280266 C16.87163964 100.55681559 16.86067575 108.66083157 16.85064721 116.76486778 C16.82977385 133.4266204 16.79311351 150.08828784 16.75 166.75 C0.58 166.75 -15.59 166.75 -32.25 166.75 C-32.58 158.83 -32.91 150.91 -33.25 142.75 C-34.508125 144.4 -35.76625 146.05 -37.0625 147.75 C-47.06137369 159.92390256 -61.44203914 168.13729667 -77.25 169.75 C-97.4766633 170.96191366 -116.37982659 170.22732543 -132.5625 156.5625 C-142.00123271 147.51767909 -149.14157559 134.52869455 -149.48828125 121.22265625 C-149.83328083 104.47152813 -147.39001165 90.43398718 -135.75 77.625 C-120.23238347 63.05142098 -99.07648971 60.30870147 -78.75 58.3125 C-70.31026074 57.44026752 -61.88846653 56.53232966 -53.5 55.25 C-52.76974609 55.14373291 -52.03949219 55.03746582 -51.28710938 54.92797852 C-45.66844785 54.02686 -39.37153561 52.87153561 -35.25 48.75 C-34.12135893 40.67587546 -34.57404116 33.61466701 -39.26171875 26.8125 C-43.89684239 22.00435603 -50.83148187 18.96547023 -57.47265625 18.546875 C-69.0992626 18.40494288 -78.50200334 19.42725318 -87.25 27.75 C-90.4841577 31.83525183 -91.54995129 34.64985388 -93.25 39.75 C-109.09 39.75 -124.93 39.75 -141.25 39.75 C-139.57191487 22.96914866 -134.40547408 9.73939149 -121.25 -1.25 C-89.78912643 -24.86732245 -30.92666577 -25.19074497 0 0 Z " fill="#FDFDFE" transform="translate(485.25,440.25)"/>
<path d="M0 0 C18.15 0 36.3 0 55 0 C55 15.18 55 30.36 55 46 C65.89 46 76.78 46 88 46 C88 58.87 88 71.74 88 85 C77.44 85 66.88 85 56 85 C56.06293088 97.02223147 56.13835198 109.04420689 56.23571491 121.06620979 C56.28042696 126.64861734 56.31968142 132.23095177 56.34643555 137.81347656 C56.37245994 143.20173947 56.41285666 148.58972112 56.46318626 153.97780991 C56.47986074 156.03263727 56.49137139 158.0875133 56.49761391 160.14239883 C56.5072485 163.02247802 56.53530063 165.90183668 56.56762695 168.78173828 C56.56619186 169.62978531 56.56475677 170.47783234 56.5632782 171.35157776 C56.64176234 176.3014687 57.29647863 179.69257599 60 184 C65.24586756 188.49602068 71.90608242 188.64457399 78.5 188.75 C79.4178125 188.77964844 80.335625 188.80929687 81.28125 188.83984375 C83.52091764 188.90983336 85.75958788 188.96287317 88 189 C88.67900137 193.28980783 89.34092248 197.5820897 90 201.875 C90.19078125 203.07898438 90.3815625 204.28296875 90.578125 205.5234375 C91.62612507 212.41029513 92.28971051 219.03286463 92 226 C73.89997063 233.92850718 47.45547203 232.1965878 29 226 C16.45638332 220.7810132 8.40045603 212.8014209 2.87017822 200.48347473 C-1.23001205 189.18372856 -0.50267532 177.62144294 -0.390625 165.76171875 C-0.38315229 163.42617785 -0.37746423 161.09063062 -0.37347412 158.75508118 C-0.35829898 152.64765709 -0.31908783 146.54062158 -0.2746582 140.43334961 C-0.23352941 134.18543756 -0.21542567 127.93746191 -0.1953125 121.68945312 C-0.15258507 109.45943839 -0.08230235 97.2298125 0 85 C-8.25 85 -16.5 85 -25 85 C-25 72.13 -25 59.26 -25 46 C-16.75 46 -8.5 46 0 46 C0 30.82 0 15.64 0 0 Z " fill="#FDFEFE" transform="translate(699,379)"/>
<path d="M0 0 C1 1 1 1 1.12025452 2.75270081 C1.11803391 3.51437057 1.11581329 4.27604034 1.11352539 5.06079102 C1.11341209 6.35201622 1.11341209 6.35201622 1.11329651 7.66932678 C1.10813522 8.60473801 1.10297394 9.54014923 1.09765625 10.50390625 C1.0962413 11.45692123 1.09482635 12.40993622 1.09336853 13.39183044 C1.08775152 16.44875165 1.07519616 19.50560077 1.0625 22.5625 C1.05748719 24.62955624 1.05292391 26.69661362 1.04882812 28.76367188 C1.03777656 33.84247588 1.02050055 38.9212257 1 44 C0.1551001 43.85997559 -0.6897998 43.71995117 -1.56030273 43.57568359 C-18.4302932 40.86411403 -32.82488774 40.73718737 -47.7421875 50.234375 C-56.6846727 57.22746031 -60.44275092 66.91157101 -61.80416107 77.88447571 C-62.59647655 86.44335953 -62.36956734 95.11623225 -62.4140625 103.703125 C-62.43279809 105.9952665 -62.45237323 108.28740129 -62.4727478 110.57952881 C-62.52382249 116.57659927 -62.56357948 122.57369204 -62.60089111 128.57086182 C-62.64816859 135.78564419 -62.70965968 143.00031805 -62.76873779 150.2150116 C-62.85664892 161.14329666 -62.92662888 172.07156411 -63 183 C-80.16 183 -97.32 183 -115 183 C-115 122.94 -115 62.88 -115 1 C-97.84 1 -80.68 1 -63 1 C-62.67 10.9 -62.34 20.8 -62 31 C-58.535 24.565 -58.535 24.565 -55 18 C-41.26381165 0.68045817 -21.59640762 -6.22269372 0 0 Z " fill="#FDFDFE" transform="translate(649,424)"/>
<path d="M0 0 C8.04739761 0.71851764 16.73083606 5.44253244 22.28125 11.29296875 C24.39610994 15.04203864 24.3395415 18.05517696 24.28125 22.29296875 C25.46253479 22.28630692 26.64381958 22.27964508 27.86090088 22.27278137 C38.98503137 22.21200689 50.10912825 22.16701369 61.23338699 22.13753223 C66.95269939 22.12186608 72.67187793 22.10061029 78.39111328 22.06665039 C83.90890573 22.03409109 89.42656929 22.01612289 94.94445038 22.00833702 C97.0512266 22.00278737 99.15799564 21.99195045 101.2647171 21.97577858 C104.21211578 21.95405009 107.15897963 21.95099993 110.10644531 21.95239258 C110.98038437 21.94160675 111.85432343 21.93082092 112.75474548 21.91970825 C118.70138222 21.95017864 118.70138222 21.95017864 121.85467529 23.81425476 C122.32544495 24.30223038 122.7962146 24.79020599 123.28125 25.29296875 C121.60093662 39.81567721 117.50782184 63.13559423 106.28125 73.29296875 C99.62205511 77.16845418 93.01534254 76.67744426 85.47265625 76.5859375 C84.13745096 76.58033377 82.80223945 76.57606734 81.46702576 76.57307434 C77.97346604 76.56168654 74.48028773 76.53227299 70.98687744 76.4989624 C67.41383013 76.46812957 63.84072047 76.45454095 60.26757812 76.43945312 C53.27197994 76.40739637 46.27663335 76.35627474 39.28125 76.29296875 C39.94125 78.60296875 40.60125 80.91296875 41.28125 83.29296875 C42.3987841 83.30176811 42.3987841 83.30176811 43.53889465 83.31074524 C50.55777789 83.36863314 57.57633897 83.44068688 64.59489918 83.52868366 C68.20329877 83.57342426 71.81158451 83.6126718 75.42016602 83.6394043 C78.90224585 83.66540116 82.38388839 83.7057767 85.86569786 83.75615501 C87.84150199 83.78097639 89.8174752 83.79087814 91.79341125 83.8006134 C93.59493904 83.83030464 93.59493904 83.83030464 95.43286133 83.8605957 C96.49209305 83.87169876 97.55132477 83.88280182 98.64265442 83.89424133 C101.28125 84.29296875 101.28125 84.29296875 103.15849304 85.62467957 C104.28125 87.29296875 104.28125 87.29296875 104.09375 90.41796875 C103.825625 91.36671875 103.5575 92.31546875 103.28125 93.29296875 C100.58839485 94.63939632 98.47320645 94.44245874 95.45800781 94.4699707 C94.2362384 94.48280594 93.01446899 94.49564117 91.75567627 94.50886536 C90.41524664 94.51703399 89.07481241 94.52447749 87.734375 94.53125 C86.72233128 94.53736329 86.72233128 94.53736329 85.68984222 94.54360008 C82.11679897 94.56446315 78.54379412 94.57876221 74.97070312 94.58813477 C71.28746261 94.59918307 67.60482894 94.6335629 63.92180252 94.67330647 C61.08383089 94.69951032 58.2460028 94.70783001 55.40792084 94.71141624 C53.39272956 94.71863059 51.37763653 94.74505646 49.36260986 94.77180481 C37.87711586 94.74458334 37.87711586 94.74458334 33.28125 90.29296875 C29.67911009 84.0397212 28.59708216 76.71124628 27.03125 69.73046875 C26.72961763 68.41258246 26.42719478 67.09487686 26.12402344 65.77734375 C24.84429191 60.20625925 23.58325316 54.63096849 22.32421875 49.05517578 C21.54872718 45.62223064 20.76610044 42.1909704 19.97961426 38.76052856 C19.53982436 36.83059566 19.10917505 34.8985871 18.67871094 32.96655273 C18.40833008 31.78520752 18.13794922 30.6038623 17.859375 29.38671875 C17.62637695 28.35224609 17.39337891 27.31777344 17.15332031 26.25195312 C15.98508003 22.28804712 14.85125364 18.51516084 11.50366211 15.90917969 C10.86178955 15.61817383 10.21991699 15.32716797 9.55859375 15.02734375 C8.85541016 14.69476563 8.15222656 14.3621875 7.42773438 14.01953125 C6.69876953 13.69726562 5.96980469 13.375 5.21875 13.04296875 C-2.54827692 9.46344183 -2.54827692 9.46344183 -4.71875 7.29296875 C-4.96875 4.79296875 -4.96875 4.79296875 -4.71875 2.29296875 C-2.71875 0.29296875 -2.71875 0.29296875 0 0 Z " fill="#2469FE" transform="translate(811.71875,469.70703125)"/>
<path d="M0 0 C0.97100455 29.38409168 0.97100455 29.38409168 -7.4375 39.5 C-8.60102234 40.690581 -9.78613415 41.86079104 -11 43 C-11.78375 43.7425 -12.5675 44.485 -13.375 45.25 C-24.21906622 52.47937748 -36.16213272 54.12906325 -49 53 C-52.36159566 52.11787915 -55.07933038 50.86751412 -58 49 C-58.87591797 48.45666016 -58.87591797 48.45666016 -59.76953125 47.90234375 C-64.85460125 44.25247599 -66.33344104 39.73003701 -67.38671875 33.8359375 C-67.9246737 27.06965963 -65.31267678 22.08761089 -61 17 C-50.3762743 7.33536065 -35.10044751 6.23070669 -21.48608398 4.07983398 C-15.71657624 3.1619145 -10.08094474 1.94795988 -4.40625 0.55078125 C-2 0 -2 0 0 0 Z " fill="#2369FE" transform="translate(452,522)"/>
<path d="M0 0 C3.03978021 0.68164768 4.80055419 2.23591662 6.93359375 4.43359375 C8.48383839 7.53408303 8.2235139 10.01253593 7.93359375 13.43359375 C6.1379697 16.18688396 4.88104453 17.95986836 1.93359375 19.43359375 C-5.00904049 20.11647581 -5.00904049 20.11647581 -9.06640625 17.49609375 C-11.39838638 13.92524918 -11.8090819 11.78853356 -11.54296875 7.59375 C-10.17888267 1.4106385 -5.7420565 -0.35820012 0 0 Z " fill="#2369FD" transform="translate(861.06640625,568.56640625)"/>
<path d="M0 0 C3.03978021 0.68164768 4.80055419 2.23591662 6.93359375 4.43359375 C8.44578045 7.45796714 8.10622744 10.09600909 7.93359375 13.43359375 C6.7459152 16.81390964 6.0353415 17.36576192 2.93359375 19.43359375 C-0.15708003 20.03552273 -2.97552711 20.03986076 -6.06640625 19.43359375 C-9.24097721 16.84210725 -10.61220974 15.3592368 -11.5390625 11.4296875 C-11.81863135 7.65192386 -11.15190571 5.56184294 -9.06640625 2.43359375 C-5.71397384 0.19863881 -3.9372435 -0.24561254 0 0 Z " fill="#2268FD" transform="translate(902.06640625,568.56640625)"/>
<path d="M0 0 C0.66 0 1.32 0 2 0 C2 7.59 2 15.18 2 23 C1.34 23.33 0.68 23.66 0 24 C-0.1958691 20.18788097 -0.38029565 16.37529466 -0.5625 12.5625 C-0.61857422 11.47388672 -0.67464844 10.38527344 -0.73242188 9.26367188 C-0.78076172 8.22919922 -0.82910156 7.19472656 -0.87890625 6.12890625 C-0.9260376 5.17056885 -0.97316895 4.21223145 -1.02172852 3.22485352 C-1 1 -1 1 0 0 Z " fill="#3D79FB" transform="translate(450,522)"/>
<path d="M0 0 C0.66 0.33 1.32 0.66 2 1 C-3.03320206 6.77505724 -8.03739811 12.17917294 -14 17 C-14 14 -14 14 -12.71484375 12.37426758 C-12.12832031 11.80345459 -11.54179688 11.2326416 -10.9375 10.64453125 C-10.30585937 10.02255859 -9.67421875 9.40058594 -9.0234375 8.75976562 C-8.35570312 8.11716797 -7.68796875 7.47457031 -7 6.8125 C-6.33226563 6.15830078 -5.66453125 5.50410156 -4.9765625 4.83007812 C-3.32421559 3.21313865 -1.66528399 1.60359509 0 0 Z " fill="#3C7DF9" transform="translate(72,66)"/>
<path d="M0 0 C1.11329523 3.33988568 1.01098929 5.6300357 0 9 C-1.5625 11.3125 -1.5625 11.3125 -3 13 C-2.45144652 8.428721 -1.58255197 4.32564205 0 0 Z " fill="#528FFB" transform="translate(25,136)"/>
</svg>
